<svg xmlns="http://www.w3.org/2000/svg" id="canvas" viewBox="338.811 339.656 1318.853 190.866"><path d="M 352.34,343.76 C 350.91 345.27, 351.26 347.08, 350.96 351.39 C 350.66 355.71, 350.94 358.51, 350.85 365.34 C 350.76 372.17, 350.83 376.95, 350.50 385.54 C 350.18 394.12, 349.85 399.13, 349.22 408.27 C 348.59 417.41, 348.14 422.37, 347.34 431.24 C 346.55 440.11, 346.04 444.59, 345.24 452.60 C 344.43 460.61, 343.94 464.39, 343.32 471.28 C 342.70 478.16, 342.41 481.34, 342.13 487.02 C 341.84 492.71, 341.71 495.16, 341.90 499.71 C 342.09 504.25, 341.81 506.28, 343.09 509.75 C 344.38 513.21, 345.65 514.74, 348.34 517.04 C 351.02 519.34, 352.92 520.62, 356.53 521.24 C 360.14 521.86, 362.13 520.98, 366.38 520.14 C 370.64 519.29, 372.77 518.39, 377.83 517.00 C 382.89 515.60, 385.80 514.74, 391.69 513.16 C 397.58 511.57, 400.92 510.68, 407.28 509.07 C 413.63 507.47, 417.05 506.59, 423.45 505.13 C 429.85 503.67, 433.20 503.04, 439.28 501.78 C 445.37 500.51, 448.36 499.97, 453.89 498.82 C 459.42 497.67, 462.03 497.12, 466.93 496.01 C 471.83 494.90, 474.11 494.47, 478.40 493.26 C 482.68 492.05, 484.66 491.42, 488.35 489.95 C 492.04 488.48, 493.72 487.75, 496.84 485.92 C 499.97 484.09, 501.53 483.20, 503.99 480.80 C 506.44 478.40, 507.50 476.90, 509.12 473.92 C 510.75 470.95, 511.45 469.29, 512.10 465.93 C 512.75 462.58, 512.98 460.67, 512.39 457.17 C 511.79 453.66, 511.20 451.55, 509.13 448.41 C 507.06 445.28, 505.50 443.38, 502.03 441.47 C 498.56 439.56, 496.11 439.04, 491.78 438.86 C 487.45 438.67, 484.93 439.07, 480.36 440.55 C 475.80 442.02, 473.19 443.23, 468.95 446.23 C 464.71 449.23, 462.38 451.30, 459.15 455.54 C 455.91 459.79, 454.17 462.43, 452.78 467.45 C 451.38 472.47, 451.00 475.62, 452.18 480.65 C 453.36 485.67, 454.93 488.49, 458.66 492.58 C 462.39 496.67, 465.06 498.25, 470.82 501.08 C 476.59 503.90, 480.20 504.90, 487.47 506.69 C 494.75 508.48, 499.20 509.12, 507.21 510.03 C 515.22 510.93, 519.62 510.94, 527.50 511.22 C 535.38 511.49, 539.54 511.43, 546.61 511.39 C 553.68 511.35, 557.27 511.21, 562.85 511.01 C 568.44 510.80, 570.84 510.97, 574.54 510.37 C 578.24 509.77, 580.07 509.34, 581.34 508.00 C 582.60 506.65, 582.36 504.67, 580.86 503.63 C 579.36 502.58, 577.52 502.68, 573.83 502.78 C 570.13 502.87, 567.86 503.55, 562.39 504.09 C 556.91 504.63, 553.40 505.16, 546.46 505.47 C 539.52 505.78, 535.39 505.87, 527.68 505.64 C 519.97 505.41, 515.63 505.32, 507.90 504.32 C 500.18 503.32, 495.84 502.53, 489.07 500.62 C 482.30 498.72, 478.95 497.45, 474.05 494.80 C 469.15 492.14, 467.29 490.53, 464.59 487.34 C 461.88 484.15, 461.19 482.31, 460.53 478.84 C 459.87 475.38, 460.13 473.52, 461.29 470.01 C 462.46 466.50, 463.75 464.40, 466.37 461.29 C 468.99 458.17, 471.00 456.47, 474.38 454.41 C 477.75 452.36, 479.99 451.69, 483.23 451.03 C 486.47 450.37, 488.22 450.65, 490.56 451.13 C 492.89 451.61, 493.54 452.46, 494.92 453.43 C 496.30 454.41, 496.73 454.79, 497.47 455.98 C 498.20 457.16, 498.38 457.89, 498.59 459.37 C 498.79 460.85, 498.77 461.70, 498.47 463.37 C 498.18 465.03, 497.93 465.97, 497.12 467.69 C 496.31 469.40, 495.78 470.20, 494.40 471.94 C 493.03 473.68, 492.33 474.62, 490.25 476.40 C 488.17 478.18, 486.92 479.13, 483.99 480.83 C 481.05 482.53, 479.37 483.38, 475.57 484.91 C 471.76 486.44, 469.60 487.08, 464.95 488.49 C 460.30 489.90, 457.73 490.59, 452.31 491.95 C 446.90 493.31, 443.94 493.93, 437.88 495.29 C 431.83 496.65, 428.45 497.32, 422.01 498.75 C 415.58 500.17, 412.12 501.02, 405.71 502.41 C 399.30 503.81, 395.92 504.57, 389.97 505.71 C 384.02 506.85, 380.97 507.42, 375.97 508.12 C 370.98 508.83, 368.58 509.09, 364.99 509.24 C 361.41 509.39, 360.10 508.95, 358.04 508.88 C 355.97 508.81, 355.71 509.48, 354.66 508.88 C 353.60 508.28, 353.68 507.92, 352.78 505.89 C 351.88 503.86, 350.94 502.49, 350.14 498.72 C 349.34 494.95, 349.03 492.46, 348.78 487.05 C 348.54 481.63, 348.63 478.45, 348.92 471.65 C 349.21 464.85, 349.60 461.05, 350.25 453.05 C 350.89 445.06, 351.33 440.55, 352.13 431.67 C 352.93 422.79, 353.40 417.82, 354.23 408.67 C 355.07 399.51, 355.58 394.49, 356.31 385.89 C 357.04 377.30, 357.32 372.52, 357.89 365.68 C 358.46 358.85, 359.14 356.08, 359.18 351.71 C 359.22 347.35, 359.46 345.46, 358.09 343.87 C 356.72 342.28, 353.76 342.26, 352.34 343.76" style="stroke: black; fill: black;"/><path d="M 765.96,374.35 C 764.54 375.66, 763.89 376.94, 764.17 380.63 C 764.45 384.31, 765.64 386.68, 767.37 392.79 C 769.09 398.90, 770.29 403.26, 772.79 411.18 C 775.29 419.10, 776.87 424.08, 779.86 432.39 C 782.85 440.70, 784.55 445.30, 787.72 452.74 C 790.90 460.19, 792.57 463.73, 795.74 469.63 C 798.90 475.53, 800.44 478.00, 803.56 482.25 C 806.68 486.49, 807.89 488.52, 811.34 490.86 C 814.78 493.21, 817.03 494.15, 820.80 493.98 C 824.57 493.80, 827.25 492.83, 830.18 489.98 C 833.10 487.12, 833.66 484.54, 835.42 479.72 C 837.19 474.89, 837.70 471.68, 839.00 465.87 C 840.30 460.06, 840.89 456.30, 841.94 450.66 C 842.98 445.03, 844.01 441.40, 844.25 437.69 C 844.49 433.97, 843.74 432.53, 843.13 432.08 C 842.53 431.64, 840.52 433.07, 841.22 435.48 C 841.93 437.90, 843.86 439.76, 846.65 444.14 C 849.43 448.53, 851.28 452.03, 855.16 457.40 C 859.05 462.78, 861.56 466.12, 866.08 471.03 C 870.59 475.94, 873.03 478.24, 877.74 481.96 C 882.46 485.69, 884.89 487.26, 889.66 489.65 C 894.43 492.04, 896.93 493.15, 901.59 493.90 C 906.25 494.65, 908.80 494.75, 912.96 493.40 C 917.12 492.06, 919.39 490.66, 922.37 487.17 C 925.36 483.67, 926.38 481.20, 927.88 475.93 C 929.38 470.66, 929.67 467.35, 929.86 460.81 C 930.04 454.26, 929.78 450.29, 928.81 443.20 C 927.84 436.10, 927.02 432.06, 925.02 425.32 C 923.01 418.57, 921.56 415.15, 918.80 409.46 C 916.03 403.77, 914.15 401.21, 911.19 396.88 C 908.23 392.54, 906.62 390.53, 903.99 387.79 C 901.35 385.04, 900.11 384.10, 898.03 383.15 C 895.95 382.20, 895.06 382.46, 893.58 383.02 C 892.11 383.58, 891.25 384.90, 890.65 385.95 C 890.06 387.00, 889.91 388.46, 890.62 388.27 C 891.32 388.09, 893.76 385.52, 894.17 385.01 C 894.57 384.50, 893.27 384.98, 892.64 385.71 C 892.01 386.44, 891.08 387.46, 891.01 388.66 C 890.93 389.86, 891.00 390.41, 892.25 391.71 C 893.51 393.01, 894.72 393.16, 897.28 395.14 C 899.84 397.13, 901.95 398.16, 905.06 401.64 C 908.16 405.12, 910.05 407.43, 912.81 412.53 C 915.57 417.63, 916.98 420.85, 918.85 427.15 C 920.72 433.44, 921.44 437.36, 922.14 444.01 C 922.85 450.66, 922.88 454.53, 922.40 460.41 C 921.92 466.29, 921.17 469.28, 919.75 473.40 C 918.33 477.52, 917.24 478.82, 915.28 481.01 C 913.33 483.19, 912.49 483.49, 909.99 484.33 C 907.48 485.17, 906.17 485.53, 902.76 485.20 C 899.34 484.86, 897.05 484.43, 892.91 482.67 C 888.77 480.91, 886.37 479.67, 882.06 476.39 C 877.75 473.12, 875.41 471.01, 871.38 466.31 C 867.35 461.61, 865.23 458.26, 861.90 452.88 C 858.57 447.50, 857.27 444.12, 854.71 439.40 C 852.16 434.69, 852.08 431.60, 849.13 429.33 C 846.19 427.05, 842.85 426.73, 839.99 428.04 C 837.14 429.34, 836.19 431.61, 834.86 435.84 C 833.54 440.07, 834.25 443.60, 833.36 449.19 C 832.48 454.78, 831.88 458.41, 830.46 463.79 C 829.04 469.16, 827.94 472.29, 826.27 476.06 C 824.60 479.84, 823.34 480.97, 822.13 482.66 C 820.92 484.35, 821.39 484.40, 820.23 484.52 C 819.06 484.64, 818.52 484.63, 816.29 483.27 C 814.06 481.91, 812.16 481.03, 809.07 477.72 C 805.99 474.41, 804.14 472.13, 800.85 466.71 C 797.57 461.29, 795.80 457.84, 792.64 450.62 C 789.47 443.40, 787.78 438.83, 785.03 430.60 C 782.28 422.36, 780.88 417.36, 778.88 409.45 C 776.89 401.54, 776.10 397.08, 775.05 391.04 C 774.01 384.99, 774.42 382.63, 773.66 379.23 C 772.90 375.83, 772.79 375.04, 771.25 374.06 C 769.71 373.08, 767.37 373.03, 765.96 374.35" style="stroke: black; fill: black;"/><path d="M 983.77,399.49 C 981.95 399.68, 980.51 399.58, 979.20 401.96 C 977.90 404.35, 978.15 406.49, 977.24 411.42 C 976.33 416.35, 975.79 419.98, 974.66 426.62 C 973.52 433.27, 972.56 437.51, 971.55 444.65 C 970.54 451.80, 969.88 455.82, 969.59 462.34 C 969.31 468.85, 969.27 471.89, 970.11 477.22 C 970.96 482.55, 971.67 484.89, 973.81 488.98 C 975.96 493.08, 977.52 494.84, 980.84 497.70 C 984.16 500.55, 986.30 501.67, 990.42 503.26 C 994.54 504.85, 997.01 505.19, 1001.46 505.64 C 1005.90 506.09, 1008.22 505.83, 1012.64 505.52 C 1017.07 505.21, 1019.33 504.79, 1023.58 504.10 C 1027.83 503.41, 1030.13 502.85, 1033.88 502.08 C 1037.64 501.30, 1039.51 501.16, 1042.36 500.24 C 1045.21 499.33, 1046.30 498.67, 1048.13 497.51 C 1049.97 496.34, 1050.63 495.70, 1051.54 494.41 C 1052.44 493.12, 1052.80 492.43, 1052.66 491.05 C 1052.52 489.66, 1051.80 488.45, 1050.85 487.49 C 1049.89 486.52, 1049.32 486.45, 1047.89 486.20 C 1046.46 485.94, 1045.66 485.88, 1043.69 486.22 C 1041.71 486.55, 1040.58 486.88, 1038.01 487.87 C 1035.44 488.86, 1034.11 489.98, 1030.83 491.18 C 1027.55 492.38, 1025.42 493.03, 1021.63 493.87 C 1017.84 494.71, 1015.72 495.08, 1011.89 495.39 C 1008.05 495.71, 1006.06 495.76, 1002.46 495.43 C 998.85 495.09, 997.01 494.74, 993.85 493.71 C 990.70 492.68, 989.24 492.06, 986.67 490.28 C 984.11 488.50, 982.89 487.70, 981.01 484.83 C 979.13 481.95, 978.22 480.36, 977.29 475.91 C 976.35 471.47, 976.12 468.64, 976.33 462.61 C 976.55 456.57, 977.13 452.59, 978.36 445.74 C 979.58 438.89, 980.73 434.70, 982.48 428.36 C 984.23 422.02, 985.48 418.62, 987.10 414.05 C 988.73 409.49, 990.37 408.13, 990.62 405.52 C 990.87 402.90, 989.71 402.20, 988.35 400.99 C 986.98 399.78, 985.60 399.29, 983.77 399.49" style="stroke: black; fill: black;"/><path d="M 989.43,434.84 C 990.94 436.24, 992.20 436.74, 994.87 436.48 C 997.54 436.22, 998.81 434.75, 1002.78 433.54 C 1006.74 432.34, 1009.57 431.50, 1014.69 430.48 C 1019.81 429.45, 1022.98 429.02, 1028.39 428.41 C 1033.80 427.81, 1036.83 427.63, 1041.73 427.45 C 1046.64 427.26, 1049.05 427.38, 1052.93 427.49 C 1056.82 427.60, 1058.39 428.34, 1061.15 427.99 C 1063.91 427.65, 1065.53 427.17, 1066.75 425.76 C 1067.97 424.36, 1068.28 422.61, 1067.26 420.96 C 1066.24 419.32, 1064.56 418.17, 1061.65 417.55 C 1058.74 416.93, 1056.81 417.60, 1052.72 417.88 C 1048.63 418.16, 1046.24 418.54, 1041.21 418.97 C 1036.19 419.40, 1033.18 419.57, 1027.60 420.01 C 1022.02 420.44, 1018.77 420.61, 1013.33 421.13 C 1007.89 421.64, 1004.86 421.96, 1000.41 422.57 C 995.96 423.19, 993.68 422.82, 991.06 424.20 C 988.44 425.58, 987.63 427.36, 987.30 429.49 C 986.98 431.62, 987.91 433.44, 989.43 434.84" style="stroke: black; fill: black;"/><path d="M 1011.14,401.91 C 1012.42 403.32, 1013.18 404.05, 1015.75 403.96 C 1018.32 403.88, 1019.65 402.49, 1024.00 401.49 C 1028.34 400.49, 1031.41 399.76, 1037.47 398.98 C 1043.54 398.21, 1047.49 397.93, 1054.31 397.62 C 1061.14 397.31, 1065.04 397.27, 1071.60 397.42 C 1078.15 397.56, 1081.55 397.73, 1087.11 398.34 C 1092.67 398.95, 1095.44 399.31, 1099.40 400.47 C 1103.36 401.62, 1104.48 403.47, 1106.90 404.14 C 1109.32 404.81, 1110.13 403.98, 1111.49 403.81 C 1112.85 403.63, 1112.86 403.75, 1113.70 403.24 C 1114.54 402.73, 1115.43 402.34, 1115.70 401.25 C 1115.96 400.16, 1116.02 399.35, 1115.00 397.78 C 1113.99 396.22, 1113.42 394.57, 1110.61 393.43 C 1107.80 392.29, 1105.55 392.51, 1100.96 392.08 C 1096.37 391.65, 1093.49 391.53, 1087.64 391.27 C 1081.80 391.01, 1078.43 390.91, 1071.73 390.79 C 1065.03 390.67, 1061.12 390.66, 1054.16 390.65 C 1047.19 390.64, 1043.21 390.66, 1036.90 390.75 C 1030.58 390.84, 1027.39 390.87, 1022.59 391.11 C 1017.79 391.35, 1015.54 390.80, 1012.89 391.96 C 1010.25 393.12, 1009.72 394.90, 1009.37 396.89 C 1009.02 398.88, 1009.87 400.50, 1011.14 401.91" style="stroke: black; fill: black;"/><path d="M 1120.12,408.35 C 1118.54 409.78, 1117.96 411.51, 1118.04 414.89 C 1118.11 418.27, 1119.32 420.50, 1120.48 425.25 C 1121.65 430.00, 1122.45 433.27, 1123.87 438.63 C 1125.28 444.00, 1126.28 447.03, 1127.57 452.09 C 1128.86 457.15, 1129.57 459.71, 1130.30 463.95 C 1131.04 468.19, 1130.69 470.40, 1131.25 473.29 C 1131.80 476.18, 1132.02 477.35, 1133.06 478.40 C 1134.11 479.44, 1135.33 479.21, 1136.49 478.51 C 1137.64 477.81, 1139.05 476.72, 1138.84 474.88 C 1138.62 473.04, 1137.22 472.37, 1135.42 469.31 C 1133.61 466.26, 1131.77 464.09, 1129.82 459.59 C 1127.86 455.09, 1126.70 452.17, 1125.63 446.80 C 1124.55 441.43, 1124.19 438.32, 1124.46 432.76 C 1124.73 427.19, 1125.18 424.24, 1126.99 418.95 C 1128.79 413.66, 1130.00 410.91, 1133.48 406.30 C 1136.95 401.69, 1139.29 399.38, 1144.37 395.90 C 1149.45 392.41, 1152.75 390.86, 1158.88 388.88 C 1165.00 386.89, 1168.71 386.23, 1174.99 385.98 C 1181.26 385.74, 1184.89 386.26, 1190.25 387.67 C 1195.60 389.08, 1198.34 390.59, 1201.77 393.03 C 1205.19 395.48, 1206.25 397.07, 1207.37 399.90 C 1208.49 402.72, 1208.47 403.94, 1207.36 407.16 C 1206.26 410.38, 1205.00 412.41, 1201.83 416.00 C 1198.67 419.59, 1195.96 421.76, 1191.53 425.12 C 1187.10 428.47, 1183.97 430.09, 1179.70 432.78 C 1175.43 435.46, 1172.35 435.62, 1170.19 438.54 C 1168.04 441.46, 1167.77 444.50, 1168.93 447.38 C 1170.09 450.26, 1171.71 451.51, 1176.00 452.93 C 1180.29 454.35, 1183.54 453.67, 1190.38 454.47 C 1197.21 455.26, 1201.85 455.60, 1210.18 456.91 C 1218.50 458.22, 1223.71 459.04, 1232.00 461.02 C 1240.29 463.00, 1244.96 464.25, 1251.62 466.80 C 1258.28 469.35, 1261.46 471.09, 1265.29 473.77 C 1269.12 476.44, 1269.85 477.92, 1270.77 480.19 C 1271.69 482.45, 1271.58 482.62, 1269.90 485.09 C 1268.21 487.56, 1266.80 489.36, 1262.35 492.55 C 1257.90 495.74, 1254.49 497.78, 1247.63 501.05 C 1240.76 504.32, 1236.30 506.12, 1228.04 508.89 C 1219.78 511.66, 1214.79 512.94, 1206.33 514.90 C 1197.86 516.86, 1193.18 517.66, 1185.72 518.68 C 1178.25 519.69, 1174.56 520.00, 1169.01 519.97 C 1163.46 519.95, 1161.22 518.73, 1157.98 518.57 C 1154.74 518.40, 1154.20 518.86, 1152.82 519.15 C 1151.43 519.44, 1151.67 519.48, 1151.05 520.01 C 1150.43 520.55, 1149.70 520.82, 1149.72 521.82 C 1149.74 522.82, 1149.60 523.90, 1151.14 525.02 C 1152.67 526.14, 1153.74 527.15, 1157.39 527.44 C 1161.04 527.74, 1163.55 527.17, 1169.39 526.49 C 1175.22 525.82, 1178.93 525.38, 1186.55 524.06 C 1194.17 522.74, 1198.86 521.89, 1207.48 519.88 C 1216.11 517.87, 1221.15 516.63, 1229.68 514.00 C 1238.22 511.37, 1242.80 509.80, 1250.16 506.71 C 1257.52 503.62, 1261.17 502.07, 1266.48 498.55 C 1271.78 495.02, 1274.42 493.31, 1276.68 489.10 C 1278.95 484.88, 1279.33 481.64, 1277.78 477.49 C 1276.24 473.34, 1273.80 471.56, 1268.96 468.35 C 1264.12 465.15, 1260.72 463.99, 1253.59 461.46 C 1246.45 458.93, 1241.76 457.81, 1233.30 455.70 C 1224.84 453.59, 1219.62 452.65, 1211.28 450.90 C 1202.94 449.15, 1198.23 448.35, 1191.59 446.96 C 1184.96 445.57, 1181.74 444.38, 1178.10 443.95 C 1174.45 443.51, 1173.61 444.31, 1173.36 444.78 C 1173.10 445.24, 1174.52 447.16, 1176.82 446.27 C 1179.11 445.38, 1180.87 443.25, 1184.84 440.32 C 1188.81 437.39, 1192.02 435.42, 1196.66 431.64 C 1201.31 427.85, 1204.34 425.79, 1208.07 421.37 C 1211.79 416.96, 1213.93 414.46, 1215.28 409.56 C 1216.64 404.66, 1216.68 401.41, 1214.83 396.88 C 1212.98 392.35, 1210.63 390.08, 1206.04 386.92 C 1201.44 383.77, 1198.13 382.56, 1191.86 381.11 C 1185.60 379.66, 1181.68 379.29, 1174.70 379.65 C 1167.71 380.02, 1163.73 380.74, 1156.95 382.94 C 1150.17 385.14, 1146.53 386.77, 1140.79 390.65 C 1135.06 394.53, 1132.33 397.12, 1128.29 402.33 C 1124.25 407.54, 1122.80 410.70, 1120.60 416.68 C 1118.40 422.67, 1117.88 425.98, 1117.30 432.24 C 1116.72 438.50, 1117.07 441.92, 1117.72 447.99 C 1118.37 454.06, 1119.29 457.20, 1120.53 462.60 C 1121.78 467.99, 1122.25 470.88, 1123.94 474.94 C 1125.62 479.00, 1126.35 481.27, 1128.96 482.90 C 1131.57 484.54, 1134.33 483.98, 1136.99 483.11 C 1139.64 482.24, 1141.14 480.95, 1142.25 478.57 C 1143.36 476.19, 1143.15 474.56, 1142.54 471.20 C 1141.94 467.84, 1140.56 466.02, 1139.23 461.77 C 1137.89 457.52, 1137.16 455.01, 1135.86 449.97 C 1134.56 444.93, 1133.80 441.92, 1132.74 436.58 C 1131.67 431.24, 1131.23 427.94, 1130.53 423.26 C 1129.83 418.58, 1130.16 416.28, 1129.25 413.18 C 1128.34 410.08, 1127.79 408.73, 1125.96 407.76 C 1124.14 406.80, 1121.71 406.93, 1120.12 408.35" style="stroke: black; fill: black;"/><path d="M 1466.59,397.23 C 1468.04 398.41, 1468.92 398.94, 1471.20 398.54 C 1473.49 398.14, 1474.27 396.63, 1478.03 395.21 C 1481.79 393.80, 1484.37 392.54, 1490.02 391.46 C 1495.67 390.38, 1499.49 389.99, 1506.30 389.81 C 1513.10 389.63, 1517.28 389.74, 1524.05 390.56 C 1530.83 391.37, 1534.55 392.14, 1540.17 393.88 C 1545.79 395.62, 1548.60 397.09, 1552.14 399.26 C 1555.69 401.43, 1556.70 402.98, 1557.89 404.73 C 1559.08 406.47, 1558.77 406.36, 1558.09 407.97 C 1557.41 409.59, 1556.94 410.57, 1554.49 412.81 C 1552.05 415.05, 1549.85 416.74, 1545.86 419.16 C 1541.88 421.58, 1538.87 422.90, 1534.57 424.91 C 1530.26 426.92, 1527.12 426.78, 1524.35 429.21 C 1521.59 431.63, 1520.53 434.06, 1520.73 437.04 C 1520.92 440.02, 1521.83 442.45, 1525.32 444.11 C 1528.82 445.78, 1531.86 444.68, 1538.22 445.37 C 1544.59 446.06, 1549.06 446.29, 1557.16 447.56 C 1565.26 448.83, 1570.40 449.60, 1578.73 451.71 C 1587.05 453.83, 1591.79 455.24, 1598.78 458.14 C 1605.78 461.04, 1609.15 462.90, 1613.70 466.23 C 1618.25 469.56, 1619.74 471.58, 1621.54 474.78 C 1623.33 477.99, 1623.31 479.19, 1622.67 482.24 C 1622.03 485.30, 1621.37 486.71, 1618.36 490.06 C 1615.34 493.40, 1613.04 495.52, 1607.59 498.97 C 1602.14 502.42, 1598.49 504.34, 1591.11 507.30 C 1583.73 510.27, 1579.14 511.68, 1570.70 513.80 C 1562.27 515.92, 1557.45 516.78, 1548.95 517.91 C 1540.45 519.05, 1535.86 519.32, 1528.20 519.46 C 1520.53 519.59, 1516.59 519.35, 1510.63 518.58 C 1504.67 517.80, 1502.08 516.85, 1498.39 515.58 C 1494.70 514.31, 1494.20 513.06, 1492.17 512.22 C 1490.14 511.39, 1489.54 511.06, 1488.24 511.40 C 1486.95 511.74, 1485.80 512.39, 1485.68 513.93 C 1485.57 515.47, 1485.59 517.28, 1487.69 519.13 C 1489.79 520.97, 1491.70 522.04, 1496.18 523.16 C 1500.66 524.28, 1503.65 524.40, 1510.09 524.72 C 1516.52 525.04, 1520.46 525.12, 1528.37 524.75 C 1536.27 524.38, 1540.91 524.06, 1549.62 522.87 C 1558.33 521.68, 1563.21 520.85, 1571.92 518.80 C 1580.63 516.76, 1585.33 515.48, 1593.15 512.65 C 1600.97 509.83, 1604.86 508.18, 1611.01 504.67 C 1617.16 501.16, 1620.08 499.31, 1623.92 495.09 C 1627.76 490.87, 1629.47 488.32, 1630.21 483.57 C 1630.95 478.81, 1630.20 475.76, 1627.60 471.31 C 1624.99 466.85, 1622.54 464.92, 1617.20 461.27 C 1611.85 457.63, 1608.26 456.05, 1600.85 453.07 C 1593.44 450.10, 1588.65 448.76, 1580.15 446.39 C 1571.65 444.03, 1566.48 443.04, 1558.35 441.24 C 1550.22 439.45, 1545.62 438.74, 1539.51 437.41 C 1533.39 436.08, 1530.70 434.60, 1527.77 434.61 C 1524.85 434.62, 1524.46 436.56, 1524.87 437.45 C 1525.27 438.35, 1526.92 439.74, 1529.78 439.07 C 1532.65 438.40, 1534.92 436.38, 1539.18 434.08 C 1543.44 431.79, 1546.60 430.40, 1551.08 427.58 C 1555.55 424.77, 1558.24 423.44, 1561.57 420.01 C 1564.89 416.58, 1566.94 414.48, 1567.71 410.42 C 1568.48 406.37, 1567.75 403.30, 1565.40 399.72 C 1563.05 396.14, 1560.61 394.99, 1555.94 392.53 C 1551.27 390.06, 1548.26 389.08, 1542.04 387.40 C 1535.82 385.73, 1531.99 385.06, 1524.85 384.15 C 1517.70 383.24, 1513.48 383.08, 1506.31 382.86 C 1499.15 382.65, 1495.25 382.75, 1489.02 383.09 C 1482.78 383.43, 1479.68 383.73, 1475.13 384.58 C 1470.57 385.44, 1468.48 385.77, 1466.24 387.38 C 1464.01 388.98, 1463.89 390.64, 1463.96 392.61 C 1464.03 394.58, 1465.14 396.04, 1466.59 397.23" style="stroke: black; fill: black;"/><path d="M 1651.14,519.27 C 1653.23 519.95, 1654.59 520.24, 1654.66 519.99 C 1654.74 519.73, 1653.43 518.96, 1651.50 517.99 C 1649.56 517.03, 1647.04 515.87, 1645.00 515.17 C 1642.95 514.47, 1641.41 514.20, 1641.26 514.49 C 1641.11 514.77, 1642.26 515.63, 1644.24 516.59 C 1646.22 517.55, 1649.06 518.59, 1651.14 519.27" style="stroke: black; fill: black;"/></svg>